<svg id="bodyLogo" xmlns="http://www.w3.org/2000/svg" width="656.625" height="642.078"
      viewBox="0 0 656.625 642.078">
      <defs>
        <style>
          .cls-5 {
            fill: rgba(0, 0, 0, 0.25);
          }
        </style>
      </defs>
      <g id="Group_2" data-name="Group 2" transform="translate(-604.576 -190)">
        <path id="Subtraction_3" data-name="Subtraction 3" class="cls-5"
          d="M183.68,271.132h-.006a66.783,66.783,0,0,1-22.9-4.059L45.68,225.185A66.945,66.945,0,0,1,5.636,139.309L39.714,45.68A66.936,66.936,0,0,1,125.59,5.635l115.089,41.89A66.943,66.943,0,0,1,280.724,133.4L246.645,227.03a67.083,67.083,0,0,1-62.965,44.1ZM164.17,136.677c-11.622,0-21.077,8.839-21.077,19.7s9.455,19.7,21.077,19.7,21.077-8.839,21.077-19.7S175.792,136.677,164.17,136.677Z"
          transform="translate(603 374.655)" />
        <path id="Subtraction_4" data-name="Subtraction 4" class="cls-5"
          d="M0,642.078H0L43.27,498.268a314.932,314.932,0,0,0,79.123,36.985,50.708,50.708,0,0,0,15.153,2.4,45.719,45.719,0,0,0,12.683-1.795c.678-.2,1.355-.408,2.015-.631,32.311-10.916,59.7-59.231,75.152-132.557,14.266-67.715,15.62-145.1,3.534-201.954-1.675-7.88-3.513-15.325-5.461-22.128-1.925-6.722-4.026-13.051-6.245-18.811a158.135,158.135,0,0,0-7.058-15.822,117.151,117.151,0,0,0-7.9-13.155A89.113,89.113,0,0,0,185.8,111.185a99.155,99.155,0,0,0-22.2-12.862L193.186,0l401.1,412.789v28.577L0,642.078ZM330.156,202.965h0a14.8,14.8,0,0,0-4.1.583,16.557,16.557,0,0,0-10.172,8.858,21.489,21.489,0,0,0-1.477,14.7c2.155,8.663,9.114,14.714,16.922,14.715a14.8,14.8,0,0,0,4.1-.583c9.008-2.6,14.234-13.169,11.648-23.561-2.155-8.663-9.114-14.713-16.921-14.714Z"
          transform="translate(666.918 190)" />
      </g>
    </svg>