<svg xmlns="http://www.w3.org/2000/svg" width="139.041" height="138.926" viewBox="0 0 139.041 138.926">
  <g id="Group_1" data-name="Group 1" transform="translate(-606.959 -190)">
    <path id="Subtraction_3" data-name="Subtraction 3" d="M29.931,52.256h0a25.193,25.193,0,0,1-8.641-1.531l-4.643-1.69a25.276,25.276,0,1,1,17.29-47.5l4.643,1.69a25.281,25.281,0,0,1-8.647,49.035ZM32.153,26.2a4.424,4.424,0,0,0-4.56,4.263,4.571,4.571,0,0,0,9.121,0A4.424,4.424,0,0,0,32.153,26.2Z" transform="translate(606.954 233.329)" fill="#fff"/>
    <path id="Subtraction_4" data-name="Subtraction 4" d="M0,138.926H0L9.362,107.81a68.141,68.141,0,0,0,17.12,8,10.972,10.972,0,0,0,3.279.52,9.892,9.892,0,0,0,2.744-.388c.147-.042.293-.088.436-.137,6.991-2.362,12.918-12.816,16.261-28.681,3.087-14.652,3.38-31.4.765-43.7-.362-1.705-.76-3.316-1.182-4.788-.417-1.455-.871-2.824-1.351-4.07a34.217,34.217,0,0,0-1.527-3.423A25.347,25.347,0,0,0,44.2,28.3,19.281,19.281,0,0,0,40.2,24.057a21.454,21.454,0,0,0-4.8-2.783L41.8,0l86.785,89.315V95.5L0,138.926ZM71.436,43.916h0a3.2,3.2,0,0,0-.888.126,3.582,3.582,0,0,0-2.2,1.917,4.65,4.65,0,0,0-.32,3.181,3.949,3.949,0,0,0,3.661,3.184,3.2,3.2,0,0,0,.888-.126,4.153,4.153,0,0,0,2.52-5.1,3.949,3.949,0,0,0-3.661-3.184Z" transform="translate(617.415 190)" fill="#fff"/>
  </g>
</svg>
