 <svg id="footerLogo" xmlns="http://www.w3.org/2000/svg" width="96.083" height="96" viewBox="0 0 96.083 96">
      <defs>
        <style>
          .cls-2 {
            fill: #065a51;
          }
        </style>
      </defs>
      <g id="Group_2" data-name="Group 2" transform="translate(-606.954 -190)">
        <path id="Subtraction_5" data-name="Subtraction 5" class="cls-2"
          d="M20.683,36.11h0a17.407,17.407,0,0,1-5.971-1.058L11.5,33.884A17.466,17.466,0,1,1,23.449,1.058l3.208,1.167A17.47,17.47,0,0,1,20.683,36.11ZM22.218,18.1a3.057,3.057,0,0,0-3.152,2.946,3.159,3.159,0,0,0,6.3,0A3.057,3.057,0,0,0,22.218,18.1Z"
          transform="translate(606.954 219.941)" />
        <path id="Subtraction_6" data-name="Subtraction 6" class="cls-2"
          d="M0,96H0L6.469,74.5a47.086,47.086,0,0,0,11.83,5.53,7.582,7.582,0,0,0,2.266.359,6.836,6.836,0,0,0,1.9-.268c.1-.029.2-.061.3-.094C27.593,78.393,31.689,71.169,34,60.206c2.133-10.124,2.335-21.694.528-30.2-.25-1.178-.525-2.291-.817-3.308s-.6-1.951-.934-2.813a23.644,23.644,0,0,0-1.055-2.366,17.515,17.515,0,0,0-1.182-1.967,13.324,13.324,0,0,0-2.76-2.933A14.825,14.825,0,0,0,24.461,14.7L28.884,0l59.97,61.718v4.273L0,96ZM49.363,30.346h0a2.212,2.212,0,0,0-.613.087,2.476,2.476,0,0,0-1.521,1.324,3.213,3.213,0,0,0-.221,2.2,2.729,2.729,0,0,0,2.53,2.2,2.212,2.212,0,0,0,.614-.087,2.87,2.87,0,0,0,1.742-3.523,2.729,2.729,0,0,0-2.53-2.2Z"
          transform="translate(614.183 190)" />
      </g>
    </svg>